<?xml version="1.0" encoding="UTF-8"?>
<svg version="1.1" xmlns="http://www.w3.org/2000/svg" width="1000" height="1000">
<path d="M0 0 C2.15930802 0.05443231 4.31800022 0.08358044 6.4777832 0.11206055 C14.19679206 0.2803575 20.93537053 1.17632826 28.22558594 3.93457031 C31.3924109 5.10036442 34.47877418 5.6033252 37.82348633 5.99291992 C41.70861659 6.4544263 43.4582996 6.66612877 46.76098633 8.86791992 C51.71944043 10.71808936 56.79824943 11.93406006 62.01098633 12.80541992 C67.63092272 13.75268965 72.99889948 15.31107462 78.46020508 16.92260742 C81.88829881 17.90438101 85.31743461 18.70082364 88.80395508 19.43823242 C92.66643748 20.28628245 96.44151633 21.2973383 100.07348633 22.86791992 C103.33947347 24.08317095 106.58893494 24.65456221 110.00708008 25.30151367 C114.65438821 26.257343 119.20051327 27.56678638 123.76098633 28.86791992 C125.3484668 29.29717773 125.3484668 29.29717773 126.96801758 29.73510742 C129.88923082 30.6075604 132.71385622 31.54952604 135.57348633 32.59448242 C136.42168945 32.90385742 137.26989258 33.21323242 138.14379883 33.53198242 C139.89113177 34.17354049 141.63594298 34.8220081 143.37817383 35.47729492 C148.4081657 37.29665369 152.34453883 38.08429862 157.76098633 37.86791992 C159.44594931 38.83677364 161.11277389 39.83778715 162.76098633 40.86791992 C165.08814633 41.24192778 167.42216494 41.57556725 169.76098633 41.86791992 C170.52411133 42.17729492 171.28723633 42.48666992 172.07348633 42.80541992 C174.60701679 43.80704824 176.84170125 44.31186952 179.51098633 44.80541992 C182.84726568 45.43035721 185.94537054 46.21349712 189.13598633 47.36791992 C193.72835513 48.99985098 198.3409466 49.68690678 203.15942383 50.34057617 C205.76098633 50.86791992 205.76098633 50.86791992 208.76098633 52.86791992 C210.89602756 53.39671357 210.89602756 53.39671357 213.26098633 53.74291992 C217.11579447 54.44888769 220.60241697 55.46477542 224.26098633 56.86791992 C228.54602172 58.49659396 232.665341 59.56046468 237.16723633 60.37963867 C244.03360584 61.67225341 250.72203064 63.40287475 257.26098633 65.86791992 C262.99664433 68.02799654 268.80194025 69.46413993 274.76098633 70.86791992 C290.45688431 74.61899337 290.45688431 74.61899337 295.19848633 76.49291992 C297.87300289 77.52518947 300.09239553 78.21123928 302.85473633 78.77807617 C307.90925856 79.86922418 312.8575933 81.24385139 317.82348633 82.68041992 C318.73453125 82.94177734 319.64557617 83.20313477 320.58422852 83.47241211 C327.4688361 85.46044195 334.30493869 87.57699536 341.12036133 89.78979492 C343.78145081 90.57784288 346.35313653 91.24146104 349.05786133 91.82104492 C355.10949256 93.11984381 361.00968543 94.91193334 366.94458008 96.65698242 C371.0219538 97.84247434 375.07240815 98.96747764 379.22973633 99.83666992 C385.49356005 101.1769399 391.51367765 103.29594924 397.58911133 105.30151367 C402.69132013 106.96186933 407.70256836 108.38884321 412.98364258 109.3581543 C414.76098633 109.86791992 414.76098633 109.86791992 416.76098633 111.86791992 C418.46254883 112.57948242 418.46254883 112.57948242 420.19848633 113.30541992 C424.91899987 115.3758206 424.91899987 115.3758206 426.76098633 117.86791992 C426.76098633 118.52791992 426.76098633 119.18791992 426.76098633 119.86791992 C427.31786133 120.09479492 427.87473633 120.32166992 428.44848633 120.55541992 C434.05388601 123.73686299 436.27895024 127.48339613 438.14571214 133.40760219 C439.11198734 137.27147953 439.23830907 140.99912425 439.26803589 144.96730042 C439.28566962 145.84137082 439.30330336 146.71544123 439.32147145 147.61599863 C439.37576496 150.53660318 439.40848323 153.45699835 439.44018555 156.37792969 C439.47294794 158.50188233 439.50638916 160.62582459 439.54044914 162.74975681 C439.93065747 189.16582417 439.90820258 215.58713289 439.89628864 242.00552877 C439.89395525 247.30249521 439.89373445 252.59945844 439.89480209 257.89642525 C439.89503194 259.0505462 439.89503194 259.0505462 439.89526644 260.22798272 C439.89558636 261.79402085 439.89591058 263.36005898 439.89623903 264.9260971 C439.89906124 279.46732615 439.89586213 294.0085488 439.89043866 308.5497768 C439.88600355 320.81557713 439.88677132 333.08136782 439.89135742 345.34716797 C439.94048581 480.38685026 439.94048581 480.38685026 438.88308716 545.01754761 C438.6488971 559.59388535 438.49903132 574.17163329 438.3484869 588.74903584 C438.33629399 589.89808997 438.32410109 591.04714411 438.3115387 592.23101807 C438.30111321 593.24498783 438.29068773 594.2589576 438.27994633 595.30365372 C438.11062996 606.85455122 437.87562335 618.24403187 431.02270508 628.03979492 C427.48023811 633.17253344 425.14994927 639.13440887 422.76098633 644.86791992 C422.10098633 644.86791992 421.44098633 644.86791992 420.76098633 644.86791992 C420.57656982 645.97369385 420.57656982 645.97369385 420.38842773 647.10180664 C419.78546752 649.75999309 418.98741862 651.72676085 417.72192383 654.12573242 C417.30958496 654.91101318 416.89724609 655.69629395 416.47241211 656.50537109 C416.0313916 657.32626221 415.59037109 658.14715332 415.13598633 658.99291992 C414.46092041 660.26389526 414.46092041 660.26389526 413.7722168 661.56054688 C410.82194249 667.05696992 407.67430841 672.35820944 404.22583008 677.55932617 C402.79469532 679.81479455 401.60320073 682.08620749 400.44848633 684.49291992 C398.76098633 687.86791992 398.76098633 687.86791992 396.76098633 688.86791992 C396.14223633 690.16729492 396.14223633 690.16729492 395.51098633 691.49291992 C393.77213901 694.84641117 391.87999408 697.14437889 389.38208008 699.92260742 C386.9779694 702.80754023 385.03661863 705.95903887 383.05786133 709.14526367 C382.62989258 709.71374023 382.20192383 710.2822168 381.76098633 710.86791992 C381.10098633 710.86791992 380.44098633 710.86791992 379.76098633 710.86791992 C379.50961914 711.58979492 379.25825195 712.31166992 378.99926758 713.05541992 C375.93601903 720.01295607 370.06977305 725.5591332 364.76098633 730.86791992 C363.91042586 732.04314228 363.07791874 733.23157793 362.26098633 734.43041992 C360.12862247 737.53508806 357.7220474 739.53024013 354.76098633 741.86791992 C354.28661133 742.67229492 353.81223633 743.47666992 353.32348633 744.30541992 C351.32433431 747.58402923 348.72441592 749.44879372 345.76098633 751.86791992 C344.42271329 753.53062279 343.08908848 755.19708174 341.76098633 756.86791992 C340.95661133 757.50729492 340.15223633 758.14666992 339.32348633 758.80541992 C336.8855261 760.7676806 335.09532957 762.85958683 333.14379883 765.28979492 C329.9120729 768.97797932 325.95101951 771.95463865 322.07348633 774.93041992 C319.68435304 776.78799106 319.68435304 776.78799106 317.94848633 779.24291992 C315.5125217 782.16607748 312.89915061 784.0571086 309.83129883 786.27026367 C307.81123691 787.82914164 306.09060707 789.46843626 304.32348633 791.30541992 C300.45090685 795.28149818 296.19038652 798.53526588 291.76098633 801.86791992 C289.65645281 803.45999448 287.55406672 805.05481222 285.45385742 806.65258789 C283.98905601 807.76664881 282.52205292 808.87782297 281.05249023 809.9855957 C276.75142721 813.25249069 272.65633263 816.67415081 268.61572266 820.25708008 C266.13502137 822.41157094 263.54330276 824.37453702 260.88598633 826.30541992 C259.96043945 826.98475586 259.03489258 827.6640918 258.08129883 828.36401367 C255.76098633 829.86791992 255.76098633 829.86791992 253.76098633 829.86791992 C253.76098633 830.52791992 253.76098633 831.18791992 253.76098633 831.86791992 C251.64379883 833.59448242 251.64379883 833.59448242 248.88598633 835.49291992 C247.98106445 836.12456055 247.07614258 836.75620117 246.14379883 837.40698242 C243.76098633 838.86791992 243.76098633 838.86791992 241.76098633 838.86791992 C241.76098633 839.52791992 241.76098633 840.18791992 241.76098633 840.86791992 C239.79600311 842.25233992 237.79050167 843.57995826 235.76098633 844.86791992 C235.12161133 845.36291992 234.48223633 845.85791992 233.82348633 846.36791992 C231.76098633 847.86791992 231.76098633 847.86791992 228.69848633 849.55541992 C225.35702573 851.41657755 222.3354836 853.59473195 219.26098633 855.86791992 C216.28602358 858.06469078 213.37295891 860.20129324 210.13598633 861.99291992 C206.68273098 863.91139512 203.46442061 866.03837663 200.19067383 868.24291992 C181.01450538 881.06813869 160.82519069 892.50162513 140.76098633 903.86791992 C140.00043945 904.30491211 139.23989258 904.7419043 138.45629883 905.19213867 C133.13507384 908.21419286 127.66890981 910.92960558 122.18725586 913.64526367 C117.16806169 916.14036782 112.20548581 918.7282428 107.26098633 921.36791992 C94.36333083 928.23853745 81.26266973 934.62519318 68.02319336 940.80737305 C63.9699679 942.70756853 59.92912893 944.63389089 55.88598633 946.55541992 C50.08972361 949.30852916 44.27449831 952.00442691 38.41723633 954.62573242 C35.21584668 956.12285287 32.08976873 957.74863054 28.94848633 959.36791992 C6.62955804 970.60096295 6.62955804 970.60096295 -2.90307617 967.78588867 C-4.23126406 967.2274384 -5.55133439 966.64940888 -6.86401367 966.05541992 C-7.58041016 965.74644775 -8.29680664 965.43747559 -9.03491211 965.11914062 C-17.80187952 961.28616265 -26.41639147 957.09908988 -35.01342773 952.90185547 C-37.39022741 951.79767089 -39.80262965 950.832545 -42.23901367 949.86791992 C-44.74703641 948.73658358 -47.24572199 947.59313317 -49.73901367 946.43041992 C-50.38999023 946.13071289 -51.0409668 945.83100586 -51.71166992 945.5222168 C-55.3592583 943.82369332 -58.80934234 941.96649504 -62.23901367 939.86791992 C-65.17368497 938.56989223 -68.12333601 937.32690124 -71.09057617 936.10620117 C-81.26760032 931.76426616 -90.9363541 926.23093328 -100.62573242 920.91088867 C-104.17778715 918.9696066 -107.74765737 917.08098683 -111.36010742 915.25463867 C-126.19178024 907.74424444 -140.34662996 899.33020672 -154.46606445 890.57861328 C-156.29616659 889.44958302 -158.1346433 888.3340022 -159.98168945 887.23291016 C-162.12021329 885.93975779 -164.03060713 884.54123279 -165.98901367 882.99291992 C-169.46001862 880.34741615 -173.03253582 878.27442105 -176.87573242 876.22338867 C-180.40465841 874.19936005 -183.64613158 871.80223402 -186.94995117 869.43432617 C-189.59291845 867.62574276 -192.36490083 866.27155643 -195.23901367 864.86791992 C-196.91731168 863.5492572 -198.58516134 862.21711525 -200.23901367 860.86791992 C-201.55040271 860.15906098 -202.87678384 859.4733554 -204.23901367 858.86791992 C-204.23901367 858.20791992 -204.23901367 857.54791992 -204.23901367 856.86791992 C-205.08979492 856.71323242 -205.08979492 856.71323242 -205.95776367 856.55541992 C-208.66435202 855.73973576 -210.44503696 854.51958316 -212.73901367 852.86791992 C-213.61944336 852.2362793 -214.49987305 851.60463867 -215.40698242 850.95385742 C-219.3337625 848.06158078 -223.22203065 845.11926424 -227.11401367 842.18041992 C-230.2178148 839.88360708 -233.36802441 837.67766746 -236.55151367 835.49291992 C-241.54324294 832.06450127 -246.47333701 828.56407795 -251.36401367 824.99291992 C-252.0037915 824.52837402 -252.64356934 824.06382812 -253.30273438 823.58520508 C-257.89923433 820.21324578 -257.89923433 820.21324578 -259.73461914 818.34790039 C-261.39479401 816.6152375 -261.39479401 816.6152375 -264.42651367 814.80541992 C-265.35463867 814.16604492 -266.28276367 813.52666992 -267.23901367 812.86791992 C-267.23901367 812.20791992 -267.23901367 811.54791992 -267.23901367 810.86791992 C-268.2831543 810.5334082 -268.2831543 810.5334082 -269.34838867 810.19213867 C-272.90973865 808.56065537 -275.58509442 806.25066436 -278.48901367 803.68041992 C-279.63877672 802.68285057 -280.78982322 801.68675859 -281.94213867 800.69213867 C-282.50223633 800.20793457 -283.06233398 799.72373047 -283.6394043 799.22485352 C-286.41781306 796.86795549 -289.31973606 794.6787872 -292.23901367 792.50073242 C-294.23901367 790.86791992 -294.23901367 790.86791992 -296.65307617 788.44995117 C-299.1911235 785.91573775 -301.81979394 783.67620398 -304.61401367 781.43041992 C-305.56663086 780.65698242 -306.51924805 779.88354492 -307.50073242 779.08666992 C-308.85618164 777.98838867 -308.85618164 777.98838867 -310.23901367 776.86791992 C-312.63964979 774.91766132 -314.95081186 772.95272602 -317.23901367 770.86791992 C-317.23901367 770.20791992 -317.23901367 769.54791992 -317.23901367 768.86791992 C-317.79588867 768.62041992 -318.35276367 768.37291992 -318.92651367 768.11791992 C-323.75919122 765.50566179 -326.84900222 762.10543424 -330.23901367 757.86791992 C-331.44557617 756.90885742 -331.44557617 756.90885742 -332.67651367 755.93041992 C-335.64598204 753.54036001 -337.80232023 750.79195205 -340.23901367 747.86791992 C-341.90171654 746.52964688 -343.56817549 745.19602207 -345.23901367 743.86791992 C-346.59288303 742.21789164 -347.9257951 740.55048122 -349.23901367 738.86791992 C-351.75198744 736.29051093 -354.32129313 733.78946742 -356.92651367 731.30541992 C-358.95072413 729.17179268 -360.1423669 727.55968928 -361.23901367 724.86791992 C-361.89901367 724.86791992 -362.55901367 724.86791992 -363.23901367 724.86791992 C-377.23901367 709.65770381 -377.23901367 709.65770381 -377.23901367 704.86791992 C-377.89901367 704.86791992 -378.55901367 704.86791992 -379.23901367 704.86791992 C-379.56901367 703.54791992 -379.89901367 702.22791992 -380.23901367 700.86791992 C-380.89901367 700.86791992 -381.55901367 700.86791992 -382.23901367 700.86791992 C-383.78138106 698.83425791 -385.21025809 696.80669677 -386.61401367 694.68041992 C-387.39084924 693.51905075 -388.16947631 692.35887777 -388.94995117 691.19995117 C-389.51987793 690.35231201 -389.51987793 690.35231201 -390.10131836 689.48754883 C-391.15616109 687.98586929 -392.30781596 686.55348062 -393.46557617 685.12963867 C-395.23901367 682.86791992 -395.23901367 682.86791992 -396.23901367 679.86791992 C-396.92350586 679.19116211 -396.92350586 679.19116211 -397.62182617 678.50073242 C-399.65186474 676.45107996 -400.76986282 674.2931737 -402.11401367 671.74291992 C-402.63479492 670.76581055 -403.15557617 669.78870117 -403.69213867 668.78198242 C-404.20260742 667.8203418 -404.71307617 666.85870117 -405.23901367 665.86791992 C-406.10947188 664.28208514 -406.98409055 662.69852257 -407.86401367 661.11791992 C-408.47116211 660.01963867 -408.47116211 660.01963867 -409.09057617 658.89916992 C-410.09927639 657.11507429 -411.16487304 655.36339844 -412.23901367 653.61791992 C-415.26211507 648.35187233 -417.14242561 642.54534726 -419.23901367 636.86791992 C-419.61413086 635.92303711 -419.98924805 634.9781543 -420.37573242 634.00463867 C-422.60400366 628.28071515 -423.91356342 622.79728876 -424.80932617 616.72338867 C-425.57007535 611.66786457 -426.62743051 606.71466123 -428.23510742 601.86010742 C-429.74477837 596.62662812 -429.92292594 591.2142864 -430.30151367 585.80541992 C-430.45678507 583.68936592 -430.61426935 581.57347291 -430.77416992 579.45776367 C-430.83999268 578.52826904 -430.90581543 577.59877441 -430.97363281 576.64111328 C-431.20582153 573.84246234 -431.20582153 573.84246234 -431.73681641 571 C-432.31517615 567.39291342 -432.55281096 563.80791448 -432.73901367 560.16479492 C-432.77961914 559.4104718 -432.82022461 558.65614868 -432.86206055 557.87896729 C-432.9477423 556.26860341 -433.03168581 554.65814624 -433.11401367 553.04760742 C-433.23367125 550.72176321 -433.36082695 548.39643224 -433.48901367 546.07104492 C-435.02759601 517.22079508 -435.41175547 488.34311144 -435.57526827 459.45834732 C-435.59626592 455.81936135 -435.61960476 452.18039151 -435.64280546 448.54141903 C-435.69782791 439.89018117 -435.7485654 431.23892557 -435.79663086 422.58764648 C-435.83980077 414.83174595 -435.88836593 407.07590253 -435.94213867 399.32006836 C-436.2064594 361.04096129 -436.4161544 322.7698806 -435.82495117 284.49291992 C-435.81474835 283.81287022 -435.80454553 283.13282051 -435.79403353 282.43216324 C-435.59849082 269.4514014 -435.35649588 256.48818336 -434.59871387 243.5268383 C-434.14510287 235.66990923 -433.97514046 227.8122136 -433.82402229 219.94446182 C-433.77235656 217.28229572 -433.71593066 214.62026502 -433.65830994 211.95822144 C-433.49526056 204.40465414 -433.33743808 196.85099734 -433.18945312 189.29711914 C-432.46319118 152.50820305 -432.46319118 152.50820305 -431.32104492 140.11401367 C-431.24974869 139.32443268 -431.17845245 138.53485168 -431.10499573 137.72134399 C-430.22621585 129.64899778 -427.42000669 123.18292442 -421.23901367 117.86791992 C-418.25073242 116.45385742 -418.25073242 116.45385742 -414.92651367 115.24291992 C-413.76506836 114.81881836 -412.60362305 114.3947168 -411.40698242 113.95776367 C-408.04179419 112.80007253 -404.67668142 111.78872378 -401.23901367 110.86791992 C-394.22476478 108.82016694 -387.39071812 106.60580297 -380.64135742 103.80541992 C-377.35520368 102.52301846 -374.0034478 101.55974249 -370.61401367 100.59057617 C-368.38794133 99.91323508 -366.26991344 99.11454346 -364.11401367 98.24291992 C-360.86369382 96.97529518 -357.83781118 96.57091813 -354.35620117 96.23901367 C-351.01819325 95.65393848 -348.07235049 94.24253381 -344.96948242 92.91479492 C-341.00611737 91.39522148 -336.94354118 90.49604205 -332.80541992 89.57885742 C-330.02919753 88.95369489 -330.02919753 88.95369489 -327.23901367 86.86791992 C-325.29370117 86.34057617 -325.29370117 86.34057617 -323.11401367 85.93041992 C-317.31727727 84.72626695 -311.85877681 82.79661902 -306.28588867 80.82104492 C-297.35452131 77.72423915 -297.35452131 77.72423915 -292.73901367 77.24291992 C-289.48496825 76.8942722 -288.01391699 76.3896411 -285.23901367 74.86791992 C-281.99195521 73.87392243 -278.73331985 72.99581732 -275.44604492 72.14526367 C-274.47022461 71.88874023 -273.4944043 71.6322168 -272.48901367 71.36791992 C-271.56604492 71.13073242 -270.64307617 70.89354492 -269.69213867 70.64916992 C-267.0234467 69.9235815 -267.0234467 69.9235815 -264.23901367 67.86791992 C-259.47818587 66.3133639 -254.69089161 65.32433861 -249.76635742 64.43041992 C-247.16827661 63.89825954 -247.16827661 63.89825954 -244.44213867 62.93041992 C-239.99365127 61.4548241 -235.46002387 60.42692138 -230.8972168 59.36791992 C-227.52717406 58.55631979 -225.15459866 57.81164324 -222.23901367 55.86791992 C-220.26635742 55.27026367 -220.26635742 55.27026367 -218.17651367 54.80541992 C-215.98630109 54.31190833 -214.25387515 53.87535066 -212.23901367 52.86791992 C-209.9724221 52.59696116 -207.70620208 52.42303995 -205.43041992 52.24682617 C-202.95527723 51.97113752 -202.95527723 51.97113752 -200.23901367 49.86791992 C-198.13515871 49.63415826 -196.03051631 49.40550062 -193.92260742 49.21166992 C-187.80696748 48.42829829 -181.40127656 47.30942851 -176.23901367 43.86791992 C-174.15307617 43.30541992 -174.15307617 43.30541992 -171.86401367 42.86791992 C-169.28034986 42.33868556 -167.0672667 41.79840329 -164.61401367 40.80541992 C-161.54451178 39.59377444 -158.4979217 39.30661908 -155.23901367 38.86791992 C-154.90901367 38.53791992 -154.57901367 38.20791992 -154.23901367 37.86791992 C-152.82561274 37.71022643 -151.40775845 37.59157436 -149.98901367 37.49291992 C-145.95043153 37.09224169 -143.67197523 36.06853631 -140.23901367 33.86791992 C-138.32116113 33.38033029 -136.40156424 32.89722286 -134.46948242 32.46948242 C-131.97641919 31.79709759 -129.72971044 30.83785902 -127.36401367 29.80541992 C-122.98809086 27.97253726 -119.09159492 27.33849314 -114.36791992 27.14135742 C-111.94063605 26.98979999 -111.94063605 26.98979999 -109.23901367 24.86791992 C-107.32885742 24.59448242 -107.32885742 24.59448242 -105.17651367 24.49291992 C-98.97662928 23.93664971 -93.70334616 21.42435915 -88.08276367 18.89916992 C-83.8040848 17.3475611 -79.41450909 16.35127683 -74.98901367 15.30541992 C-74.08538086 15.0843457 -73.18174805 14.86327148 -72.25073242 14.63549805 C-67.19639702 13.4319117 -62.26010974 12.53152914 -57.08007812 12.09863281 C-54.60803464 11.78884882 -52.53602882 10.81028511 -50.23901367 9.86791992 C-48.25976295 9.61187722 -46.29329521 9.43381252 -44.30151367 9.30932617 C-42.12594951 8.97394167 -42.12594951 8.97394167 -40.15307617 7.49682617 C-35.87637577 5.1062309 -31.37200492 4.29304878 -26.61401367 3.24291992 C-24.72576464 2.81423636 -22.83773365 2.38459089 -20.94995117 1.95385742 C-20.1177002 1.76871582 -19.28544922 1.58357422 -18.42797852 1.39282227 C-12.12690319 -0.11814271 -6.48568872 -0.17744207 0 0 Z " fill="#000000" transform="translate(497.239013671875,16.132080078125)"/>
<path d="M0 0 C27.86222626 23.71955314 40.39186099 56.3686454 43.80783081 92.25424194 C44.03766869 94.65694408 44.2834403 97.05756897 44.53344727 99.45825195 C45.15493156 105.4371973 45.75860031 111.41786653 46.35449219 117.39941406 C46.68690945 120.67349646 47.04306365 123.94405661 47.40625 127.21484375 C47.49205322 128.13209229 47.57785645 129.04934082 47.66625977 129.99438477 C48.53175285 137.55170332 50.91037774 144.75347123 56.65625 149.96484375 C60.10770858 151.59289025 63.45907126 152.66450452 67.125 153.69140625 C83.71748921 158.56886874 95.9250119 165.99704996 104.40625 181.3125 C106.96271404 186.57242476 108.55730607 191.86315787 109.96875 197.52734375 C110.1347168 198.15302246 110.30068359 198.77870117 110.47167969 199.42333984 C117.94566696 228.00818611 117.46600227 258.42562872 117.35986328 287.74682617 C117.34278514 292.50705293 117.35293642 297.26677564 117.37019348 302.02698517 C117.63799697 389.3860302 117.63799697 389.3860302 97.78515625 412.703125 C94.77678233 415.72443816 91.56651473 418.2466179 87.96875 420.52734375 C86.90011719 421.21828125 85.83148437 421.90921875 84.73046875 422.62109375 C80.82152824 424.82527008 77.20584133 425.35123467 72.78125 425.71484375 C71.76321289 425.81829102 71.76321289 425.81829102 70.72460938 425.92382812 C69.30443391 426.06440053 67.88317621 426.19439983 66.46111107 426.3143568 C64.87657831 426.44976447 63.29272211 426.59354806 61.70998573 426.74854755 C50.71553545 427.77073778 39.67998483 428.1270813 28.64990234 428.5534668 C27.51639367 428.59746089 26.38288499 428.64145499 25.21502757 428.68678224 C-1.49645766 429.70356114 -28.20122276 429.98468572 -54.9296875 430.109375 C-56.77090329 430.11829415 -56.77090329 430.11829415 -58.64931536 430.12739348 C-70.28002193 430.1829791 -81.91073766 430.23145502 -93.54154015 430.26154041 C-107.55541985 430.2982136 -121.56804232 430.36438556 -135.58140115 430.48429552 C-146.70466905 430.57867058 -157.82761558 430.63029599 -168.95128882 430.64365786 C-175.14990276 430.65221791 -181.34713863 430.67884084 -187.54536057 430.7515049 C-193.33975385 430.81859229 -199.13196125 430.83313036 -204.92666626 430.80811501 C-207.0398167 430.8079489 -209.15306985 430.82637535 -211.2658577 430.86552048 C-223.79499087 431.08508707 -231.96040369 430.12187349 -241.25760841 421.26165295 C-242.17291014 420.35933091 -243.08821186 419.45700888 -244.03125 418.52734375 C-245.65128088 417.22945214 -247.28641715 415.9496549 -248.94921875 414.70703125 C-249.66658203 414.15144531 -250.38394531 413.59585937 -251.12304688 413.0234375 C-252.53129519 411.93411215 -253.94015927 410.84558243 -255.34960938 409.7578125 C-256.76361094 408.66186548 -258.16472132 407.54902756 -259.55064774 406.41778564 C-262.01006408 404.46108207 -262.01006408 404.46108207 -264.82993698 402.90716553 C-268.64833659 400.44860576 -272.18921728 398.0842708 -273.66897869 393.59080887 C-274.72736317 387.69334288 -274.50683144 381.70582475 -274.42285156 375.73828125 C-274.43449342 373.72199388 -274.45084269 371.70572904 -274.4715271 369.68951416 C-274.51303378 364.2301224 -274.48552455 358.77309415 -274.44296741 353.31378937 C-274.40759339 347.59246367 -274.42764669 341.87128867 -274.43939209 336.14990234 C-274.45024488 326.5429126 -274.41616486 316.93686524 -274.35546875 307.33007812 C-274.2859238 296.23405173 -274.2877181 285.13977107 -274.3277247 274.04363823 C-274.36457844 263.35563373 -274.3505083 252.6682702 -274.31346893 241.98028564 C-274.29863621 237.43807152 -274.30160874 232.89638858 -274.31903839 228.35418701 C-274.33729455 223.00180351 -274.31088055 217.65142512 -274.25044632 212.29936981 C-274.23539274 210.33910547 -274.23549958 208.37865514 -274.25214005 206.41840363 C-274.37751027 189.77939107 -274.37751027 189.77939107 -268.69866943 184.00537109 C-267.17714478 182.8013896 -265.62234195 181.6377649 -264.03125 180.52734375 C-262.72831468 179.3943405 -261.43460907 178.25050515 -260.15625 177.08984375 C-259.17205078 176.25259766 -259.17205078 176.25259766 -258.16796875 175.3984375 C-256.61242034 174.03626623 -255.09914894 172.62535904 -253.61328125 171.1875 C-244.30508239 162.26427834 -230.74963921 151.41495091 -217.34375 151.08984375 C-213.16347796 150.79317146 -213.16347796 150.79317146 -209.46875 148.90234375 C-204.61037257 140.8754593 -204.89884765 130.7803157 -204.85546875 121.67578125 C-204.83222983 119.75129164 -204.80811098 117.82681249 -204.78320312 115.90234375 C-204.74852161 112.92603952 -204.71896901 109.95011191 -204.70532227 106.97363281 C-204.49559077 68.55082365 -193.64289244 32.7773285 -166.3203125 4.74609375 C-150.34153752 -10.7810421 -131.44096632 -20.00586506 -110.03125 -25.47265625 C-109.12503906 -25.72015625 -108.21882812 -25.96765625 -107.28515625 -26.22265625 C-72.37380384 -34.26623184 -27.72415571 -21.79923533 0 0 Z " fill="#FEFEFE" transform="translate(571.03125,261.47265625)"/>
<path d="M0 0 C1.18335938 0.61294922 1.18335938 0.61294922 2.390625 1.23828125 C21.30718374 11.79705224 32.63234244 30.10499691 38.875 50.375 C43.54357944 67.33896857 43.26359167 84.67029434 43.125 102.125 C43.11493971 104.35546468 43.1058193 106.58593381 43.09765625 108.81640625 C43.07590845 114.21103664 43.04267757 119.60549663 43 125 C18.52211933 125.30334838 -5.92689304 124.87369846 -30.3939743 124.18856049 C-32.65292662 124.12595813 -34.91192924 124.06563853 -37.17095947 124.00592041 C-52.46553877 123.597753 -67.74797737 123.06846046 -83.01953125 122.1171875 C-84.18675217 122.05137482 -85.35397308 121.98556213 -86.55656433 121.91775513 C-103.00259341 120.7972692 -103.00259341 120.7972692 -108.515625 115.65234375 C-118.34753645 98.0842704 -113.5362209 71.15954166 -108.35742188 52.70019531 C-103.1146499 35.3282451 -93.67613233 18.08542015 -79 7 C-78.14277344 6.32453125 -77.28554688 5.6490625 -76.40234375 4.953125 C-54.86955874 -10.80401617 -23.59933197 -12.25993664 0 0 Z " fill="#000000" transform="translate(535,292)"/>
<path d="M0 0 C5.18278561 4.38718256 9.24791485 8.93868793 12.296875 15.01171875 C12.75513672 15.924375 12.75513672 15.924375 13.22265625 16.85546875 C17.81853241 26.78778879 17.83721773 39.74472483 14.296875 50.01171875 C10.95295129 58.08644696 6.49293726 64.35451168 -1.703125 68.01171875 C-16.37956823 73.66038419 -33.12853247 74.40303596 -47.703125 68.01171875 C-58.03305577 63.15665129 -65.36387107 55.58059466 -69.703125 45.01171875 C-70.05761719 44.2228125 -70.41210938 43.43390625 -70.77734375 42.62109375 C-73.7577164 34.22071853 -71.5568102 25.90636357 -68.18359375 17.98828125 C-66.12295629 13.84525817 -63.84656252 10.40214065 -60.703125 7.01171875 C-60.14109375 6.39683594 -59.5790625 5.78195312 -59 5.1484375 C-45.33014507 -8.26295378 -15.64061201 -11.5044386 0 0 Z " fill="#010101" transform="translate(528.703125,529.98828125)"/>
<path d="M0 0 C3.95313476 3.95313476 3.20667799 9.30429503 3.31173706 14.61109924 C3.33220069 15.49224439 3.35266432 16.37338954 3.37374806 17.28123605 C3.43995585 20.25323315 3.49780294 23.22531098 3.55419922 26.19750977 C3.57516151 27.24513335 3.59612381 28.29275694 3.61772132 29.3721267 C4.15908807 56.95836414 4.14776676 84.54731184 4.13530041 112.13760408 C4.13297157 117.43457211 4.13274812 122.73153693 4.13381577 128.02850533 C4.133969 128.79791929 4.13412223 129.56733326 4.13428011 130.3600628 C4.13460003 131.92610093 4.13492425 133.49213905 4.1352527 135.05817718 C4.13807491 149.59940623 4.1348758 164.14062888 4.12945233 178.68185688 C4.12501722 190.94765721 4.12578499 203.2134479 4.13037109 215.47924805 C4.17949948 350.51893034 4.17949948 350.51893034 3.12210083 415.14962769 C2.88791078 429.72596543 2.738045 444.30371337 2.58750057 458.88111591 C2.57530766 460.03017005 2.56311476 461.17922419 2.55055237 462.36309814 C2.54012689 463.37706791 2.5297014 464.39103767 2.51896 465.4357338 C2.34964363 476.9866313 2.11463702 488.37611195 -4.73828125 498.171875 C-8.28074822 503.30461352 -10.61103706 509.26648895 -13 515 C-13.66 515 -14.32 515 -15 515 C-15.12294434 515.73718262 -15.24588867 516.47436523 -15.37255859 517.23388672 C-15.9755188 519.89207317 -16.77356771 521.85884093 -18.0390625 524.2578125 C-18.45140137 525.04309326 -18.86374023 525.82837402 -19.28857422 526.63745117 C-19.72959473 527.45834229 -20.17061523 528.2792334 -20.625 529.125 C-21.30006592 530.39597534 -21.30006592 530.39597534 -21.98876953 531.69262695 C-24.93904384 537.18905 -28.08667792 542.49028952 -31.53515625 547.69140625 C-32.96629101 549.94687463 -34.1577856 552.21828757 -35.3125 554.625 C-37 558 -37 558 -39 559 C-39.4125 559.86625 -39.825 560.7325 -40.25 561.625 C-41.98884732 564.97849125 -43.88099225 567.27645896 -46.37890625 570.0546875 C-48.78301692 572.93962031 -50.72436769 576.09111895 -52.703125 579.27734375 C-53.13109375 579.84582031 -53.5590625 580.41429687 -54 581 C-54.66 581 -55.32 581 -56 581 C-56.25136719 581.721875 -56.50273438 582.44375 -56.76171875 583.1875 C-59.8249673 590.14503615 -65.69121328 595.69121328 -71 601 C-71.85056047 602.17522235 -72.68306759 603.36365801 -73.5 604.5625 C-75.63236386 607.66716814 -78.03893893 609.66232021 -81 612 C-81.474375 612.804375 -81.94875 613.60875 -82.4375 614.4375 C-84.43665201 617.7161093 -87.0365704 619.5808738 -90 622 C-91.33827304 623.66270287 -92.67189785 625.32916181 -94 627 C-95.2065625 627.9590625 -95.2065625 627.9590625 -96.4375 628.9375 C-98.87546023 630.89976068 -100.66565676 632.99166691 -102.6171875 635.421875 C-105.84891343 639.1100594 -109.80996682 642.08671872 -113.6875 645.0625 C-116.07663329 646.92007114 -116.07663329 646.92007114 -117.8125 649.375 C-120.24846463 652.29815756 -122.86183571 654.18918868 -125.9296875 656.40234375 C-127.94974942 657.96122172 -129.67037925 659.60051634 -131.4375 661.4375 C-135.31007947 665.41357826 -139.57059981 668.66734596 -144 672 C-146.10453352 673.59207456 -148.20691961 675.1868923 -150.30712891 676.78466797 C-151.77193032 677.89872888 -153.23893341 679.00990305 -154.70849609 680.11767578 C-159.00955912 683.38457077 -163.1046537 686.80623089 -167.14526367 690.38916016 C-169.62596496 692.54365102 -172.21768357 694.5066171 -174.875 696.4375 C-176.26332031 697.45650391 -176.26332031 697.45650391 -177.6796875 698.49609375 C-180 700 -180 700 -182 700 C-182 700.66 -182 701.32 -182 702 C-184.1171875 703.7265625 -184.1171875 703.7265625 -186.875 705.625 C-187.77992188 706.25664063 -188.68484375 706.88828125 -189.6171875 707.5390625 C-192 709 -192 709 -194 709 C-194 709.66 -194 710.32 -194 711 C-195.96498322 712.38442 -197.97048465 713.71203834 -200 715 C-200.639375 715.495 -201.27875 715.99 -201.9375 716.5 C-204 718 -204 718 -207.0625 719.6875 C-210.4039606 721.54865762 -213.42550273 723.72681203 -216.5 726 C-219.47496275 728.19677086 -222.38802742 730.33337331 -225.625 732.125 C-229.07825535 734.04347519 -232.29656572 736.17045671 -235.5703125 738.375 C-254.74648095 751.20021877 -274.93579564 762.6337052 -295 774 C-296.14082031 774.65548828 -296.14082031 774.65548828 -297.3046875 775.32421875 C-302.62591249 778.34627294 -308.09207651 781.06168566 -313.57373047 783.77734375 C-318.59292464 786.2724479 -323.55550052 788.86032288 -328.5 791.5 C-341.3976555 798.37061753 -354.4983166 804.75727326 -367.73779297 810.93945312 C-371.79101842 812.83964861 -375.8318574 814.76597097 -379.875 816.6875 C-384.83552328 819.04364966 -389.80030033 821.38018223 -394.8125 823.625 C-400.17318207 826.03354358 -405.40493247 828.68546101 -410.640625 831.3515625 C-411.74921875 831.89554688 -412.8578125 832.43953125 -414 833 C-414.60650391 833.30131836 -415.21300781 833.60263672 -415.83789062 833.91308594 C-419.38859594 835.5787789 -421.27962872 836.1972094 -425 835 C-419.95052254 832.59766092 -414.9006234 830.19621088 -409.8503418 827.79556274 C-408.02980079 826.9301208 -406.20932578 826.06454 -404.38891602 825.19882202 C-394.90312889 820.68829377 -385.41539941 816.18273374 -375.8984375 811.73828125 C-350.10884397 799.69082689 -324.45774108 787.3723652 -299.60986328 773.4609375 C-296.92018784 771.95532311 -294.22389058 770.46201697 -291.52734375 768.96875 C-268.95411765 756.40364814 -246.97125643 742.89460961 -225.44189453 728.61914062 C-223.24484247 727.16234706 -221.04331506 725.71268079 -218.83984375 724.265625 C-202.85833193 713.73820285 -187.49433553 702.46645631 -172.33251953 690.79345703 C-170.33954427 689.26107308 -168.34179552 687.73546434 -166.33984375 686.21484375 C-148.76404513 672.82064778 -131.84309138 658.62294917 -115.67529297 643.55761719 C-114.47667083 642.44318856 -113.27479967 641.33225036 -112.07080078 640.22363281 C-102.17201411 631.10823701 -92.71135866 621.71829812 -83.63232422 611.78515625 C-82.14864452 610.16256188 -80.6563532 608.54854249 -79.16015625 606.9375 C-74.0049281 601.34538811 -69.06276059 595.61987411 -64.328125 589.66699219 C-63.37377679 588.46914484 -62.41489794 587.27490193 -61.453125 586.08300781 C-41.83335442 561.73019679 -27.08945321 534.96524869 -13.16428947 507.07784748 C-11.7401862 504.3025475 -10.18423762 501.69849957 -8.46936226 499.09391308 C0.39230548 485.06595083 0.33954836 472.08004434 0.09033203 455.86645508 C0.08034974 453.15706143 0.08617532 450.44777605 0.09259224 447.73837757 C0.10015036 442.1834028 0.07906808 436.62928689 0.0386734 431.07446671 C-0.01201588 423.63427171 0.03893613 416.19756175 0.13519287 408.75790405 C0.14981508 407.62106621 0.1644373 406.48422837 0.17950261 405.3129409 C0.20927578 403.02676423 0.23928572 400.74059063 0.26953435 398.45442021 C0.34184657 392.59823857 0.38987754 386.74188066 0.43728638 380.88545227 C0.44695179 379.69638045 0.4566172 378.50730863 0.4665755 377.28220433 C0.49638138 373.56704579 0.52554433 369.85188254 0.5546875 366.13671875 C0.56504957 364.84610716 0.57541163 363.55549556 0.5860877 362.22577453 C1.11684816 296.04558869 1.15465228 229.86565567 1.12946185 163.68369649 C1.12489079 151.43406598 1.12585756 139.18444486 1.13037109 126.93481445 C1.13572371 112.40273613 1.13783784 97.87066329 1.13475883 83.33858413 C1.13444046 81.79568112 1.13412609 80.25277811 1.13381577 78.70987511 C1.13366149 77.95209193 1.13350721 77.19430875 1.13334826 76.41356245 C1.13249292 71.13339645 1.13392228 65.85323406 1.13629532 60.57306862 C1.13909644 54.20836258 1.13834394 47.84366887 1.13301457 41.47896425 C1.13039822 38.25059872 1.12988282 35.02225792 1.13266373 31.79389191 C1.13540202 28.29424016 1.13196299 24.79464624 1.12698364 21.29499817 C1.13032973 19.78569858 1.13032973 19.78569858 1.13374341 18.24590808 C1.11682137 12.106916 0.7295683 6.09572335 0 0 Z " fill="#DBDBDB" transform="translate(933,146)"/>
<path d="M0 0 C0.33 0 0.66 0 1 0 C0.94522366 0.96886705 0.89044731 1.93773411 0.83401108 2.93596077 C-0.47367965 26.21966549 -1.52573671 49.49146493 -2.109375 72.8046875 C-2.13009913 73.61587965 -2.15082327 74.42707179 -2.17217541 75.26284552 C-3.45825587 125.88152914 -3.30298187 176.51701286 -3.25713873 227.14828181 C-3.24956144 236.49161362 -3.2522655 245.83489544 -3.26074219 255.17822266 C-10.68321019 413.06154342 -10.68321019 413.06154342 49 570 C49.40718262 570.5475293 49.81436523 571.09505859 50.23388672 571.65917969 C63.72455536 589.69311595 78.91899666 606.1030832 94.85595703 621.98632812 C96.76582994 623.89078505 98.67022149 625.80060819 100.57421875 627.7109375 C106.54678971 633.68685465 112.53230818 639.55486815 119 645 C124.12497279 649.54438147 129.23486494 654.0760271 134 659 C128.26494196 656.47496274 123.7584925 651.98775076 119 648 C118.24976563 647.38769531 117.49953125 646.77539062 116.7265625 646.14453125 C115.11141617 644.80956336 113.54893595 643.41125276 112 642 C112 641.34 112 640.68 112 640 C111.443125 639.7525 110.88625 639.505 110.3125 639.25 C105.47982245 636.63774187 102.39001145 633.23751432 99 629 C97.7934375 628.0409375 97.7934375 628.0409375 96.5625 627.0625 C93.59303163 624.67244009 91.43669344 621.92403212 89 619 C87.33729713 617.66172696 85.67083819 616.32810215 84 615 C82.64613064 613.34997172 81.31321858 611.6825613 80 610 C77.48702623 607.42259101 74.91772055 604.9215475 72.3125 602.4375 C70.28828954 600.30387276 69.09664677 598.69176935 68 596 C67.34 596 66.68 596 66 596 C52 580.78978389 52 580.78978389 52 576 C51.34 576 50.68 576 50 576 C49.67 574.68 49.34 573.36 49 572 C48.34 572 47.68 572 47 572 C45.45763262 569.96633799 44.02875559 567.93877684 42.625 565.8125 C41.84816443 564.65113083 41.06953736 563.49095784 40.2890625 562.33203125 C39.71913574 561.48439209 39.71913574 561.48439209 39.13769531 560.61962891 C38.08285259 559.11794937 36.93119772 557.6855607 35.7734375 556.26171875 C34 554 34 554 33 551 C32.31550781 550.32324219 32.31550781 550.32324219 31.6171875 549.6328125 C29.58714894 547.58316004 28.46915085 545.42525378 27.125 542.875 C26.60421875 541.89789062 26.0834375 540.92078125 25.546875 539.9140625 C25.03640625 538.95242188 24.5259375 537.99078125 24 537 C23.12954179 535.41416522 22.25492312 533.83060265 21.375 532.25 C20.76785156 531.15171875 20.76785156 531.15171875 20.1484375 530.03125 C19.13973728 528.24715437 18.07414063 526.49547852 17 524.75 C13.97689861 519.48395241 12.09658806 513.67742734 10 508 C9.43732422 506.58267578 9.43732422 506.58267578 8.86328125 505.13671875 C6.63501001 499.41279523 5.32545025 493.92936883 4.4296875 487.85546875 C3.66893832 482.79994465 2.61158316 477.84674131 1.00390625 472.9921875 C-0.50576469 467.7587082 -0.68391227 462.34636647 -1.0625 456.9375 C-1.2177714 454.821446 -1.37525568 452.70555298 -1.53515625 450.58984375 C-1.600979 449.66034912 -1.66680176 448.73085449 -1.73461914 447.77319336 C-1.96680786 444.97454242 -1.96680786 444.97454242 -2.49780273 442.13208008 C-3.07616247 438.5249935 -3.31379729 434.93999456 -3.5 431.296875 C-3.54060547 430.54255188 -3.58121094 429.78822876 -3.62304688 429.01104736 C-3.70872863 427.40068349 -3.79267214 425.79022632 -3.875 424.1796875 C-3.99465758 421.85384329 -4.12181327 419.52851232 -4.25 417.203125 C-5.78858234 388.35287516 -6.1727418 359.47519152 -6.3362546 330.5904274 C-6.35725225 326.95144143 -6.38059109 323.31247159 -6.40379179 319.67349911 C-6.45881424 311.02226124 -6.50955173 302.37100565 -6.55761719 293.71972656 C-6.60078709 285.96382603 -6.64935226 278.20798261 -6.703125 270.45214844 C-6.96744573 232.17304137 -7.17714073 193.90196067 -6.5859375 155.625 C-6.57573468 154.94495029 -6.56553185 154.26490059 -6.55501986 153.56424332 C-6.35947715 140.58348148 -6.11748221 127.62026344 -5.3597002 114.65891838 C-4.9060892 106.80198931 -4.73612679 98.94429367 -4.58500862 91.0765419 C-4.53334289 88.4143758 -4.47691699 85.75234509 -4.41929626 83.09030151 C-4.25624688 75.53673422 -4.09842441 67.98307742 -3.95043945 60.42919922 C-2.93146547 8.79439642 -2.93146547 8.79439642 0 0 Z " fill="#F6F6F6" transform="translate(68,145)"/>
<path d="M0 0 C0.33 0 0.66 0 1 0 C1.02283554 0.74121094 1.04567108 1.48242188 1.06919861 2.24609375 C1.28712133 9.30494051 1.5074996 16.36370563 1.73049068 23.4223938 C1.8449906 27.04946033 1.95861119 30.67654953 2.07006836 34.30371094 C2.68440271 56.16915125 2.68440271 56.16915125 4 78 C4.08677002 79.10118164 4.17354004 80.20236328 4.26293945 81.33691406 C8.466735 130.81489128 23.45117745 172.2695173 53 212 C53.40718262 212.5475293 53.81436523 213.09505859 54.23388672 213.65917969 C67.72455536 231.69311595 82.91899666 248.1030832 98.85595703 263.98632812 C100.76582994 265.89078505 102.67022149 267.80060819 104.57421875 269.7109375 C110.54678971 275.68685465 116.53230818 281.55486815 123 287 C128.12497279 291.54438147 133.23486494 296.0760271 138 301 C132.26494196 298.47496274 127.7584925 293.98775076 123 290 C122.24976563 289.38769531 121.49953125 288.77539062 120.7265625 288.14453125 C119.11141617 286.80956336 117.54893595 285.41125276 116 284 C116 283.34 116 282.68 116 282 C115.443125 281.7525 114.88625 281.505 114.3125 281.25 C109.47982245 278.63774187 106.39001145 275.23751432 103 271 C102.195625 270.360625 101.39125 269.72125 100.5625 269.0625 C97.59303163 266.67244009 95.43669344 263.92403212 93 261 C91.33729713 259.66172696 89.67083819 258.32810215 88 257 C86.64613064 255.34997172 85.31321858 253.6825613 84 252 C81.48702623 249.42259101 78.91772055 246.9215475 76.3125 244.4375 C74.28828954 242.30387276 73.09664677 240.69176935 72 238 C71.34 238 70.68 238 70 238 C56 222.78978389 56 222.78978389 56 218 C55.34 218 54.68 218 54 218 C53.67 216.68 53.34 215.36 53 214 C52.34 214 51.68 214 51 214 C49.45763262 211.96633799 48.02875559 209.93877684 46.625 207.8125 C45.84816443 206.65113083 45.06953736 205.49095784 44.2890625 204.33203125 C43.90911133 203.76693848 43.52916016 203.2018457 43.13769531 202.61962891 C42.08285259 201.11794937 40.93119772 199.6855607 39.7734375 198.26171875 C38 196 38 196 37 193 C36.31550781 192.32324219 36.31550781 192.32324219 35.6171875 191.6328125 C33.58714894 189.58316004 32.46915085 187.42525378 31.125 184.875 C30.34382813 183.40933594 30.34382813 183.40933594 29.546875 181.9140625 C29.03640625 180.95242188 28.5259375 179.99078125 28 179 C27.12954179 177.41416522 26.25492312 175.83060265 25.375 174.25 C24.97023438 173.5178125 24.56546875 172.785625 24.1484375 172.03125 C23.13973728 170.24715437 22.07414063 168.49547852 21 166.75 C17.97689861 161.48395241 16.09658806 155.67742734 14 150 C13.62488281 149.05511719 13.24976562 148.11023438 12.86328125 147.13671875 C10.63501001 141.41279523 9.32545025 135.92936883 8.4296875 129.85546875 C7.66893832 124.79994465 6.61158316 119.84674131 5.00390625 114.9921875 C3.49423531 109.7587082 3.31608773 104.34636647 2.9375 98.9375 C2.7822286 96.821446 2.62474432 94.70555298 2.46484375 92.58984375 C2.36610962 91.19560181 2.36610962 91.19560181 2.26538086 89.77319336 C2.03360611 86.97745503 2.03360611 86.97745503 1.50439453 84.1496582 C0.9111371 80.44510148 0.66606115 76.75694057 0.46484375 73.015625 C0.42173065 72.25080307 0.37861755 71.48598114 0.334198 70.69798279 C0.1968734 68.21556578 0.06620077 65.73287839 -0.0625 63.25 C-0.12928452 61.97728745 -0.12928452 61.97728745 -0.19741821 60.67886353 C-1.24474301 40.41968202 -1.5789015 20.24377278 0 0 Z " fill="#F0F0F0" transform="translate(64,503)"/>
<path d="M0 0 C-12.11571152 3.76328972 -24.24742147 7.40047742 -36.50138855 10.68780518 C-42.95032478 12.42429484 -49.37189572 14.2402055 -55.78125 16.1171875 C-56.80117538 16.4153537 -57.82110077 16.7135199 -58.87193298 17.02072144 C-71.13585294 20.61431569 -83.38033615 24.2731075 -95.62133789 27.94384766 C-98.2644512 28.73634675 -100.90802055 29.52729654 -103.55200195 30.31689453 C-122.06223558 35.83843663 -122.06223558 35.83843663 -140.4206543 41.83911133 C-144.75460305 43.2447403 -149.12750157 44.46779865 -153.515625 45.69140625 C-166.36558021 49.29405522 -179.03643163 53.44834158 -191.71240234 57.61303711 C-194.4097518 58.49903257 -197.10862957 59.38009995 -199.80908203 60.2565918 C-219.31844902 66.49853181 -219.31844902 66.49853181 -238.32073975 74.11131287 C-239.85899816 74.79171022 -241.42705855 75.4041521 -243 76 C-243.66 75.67 -244.32 75.34 -245 75 C-239.17584777 67.45017303 -228.84606146 65.36948075 -220 63 C-212.98575111 60.95224702 -206.15170445 58.73788305 -199.40234375 55.9375 C-196.11619001 54.65509854 -192.76443413 53.69182257 -189.375 52.72265625 C-187.14892766 52.04531516 -185.03089977 51.24662354 -182.875 50.375 C-179.62468015 49.10737526 -176.5987975 48.70299821 -173.1171875 48.37109375 C-169.77917958 47.78601856 -166.83333682 46.37461389 -163.73046875 45.046875 C-159.76710369 43.52730156 -155.7045275 42.62812213 -151.56640625 41.7109375 C-148.79018386 41.08577497 -148.79018386 41.08577497 -146 39 C-144.0546875 38.47265625 -144.0546875 38.47265625 -141.875 38.0625 C-136.0782636 36.85834703 -130.61976313 34.9286991 -125.046875 32.953125 C-116.11550764 29.85631923 -116.11550764 29.85631923 -111.5 29.375 C-108.24595458 29.02635228 -106.77490332 28.52172117 -104 27 C-100.75294154 26.00600251 -97.49430618 25.1278974 -94.20703125 24.27734375 C-93.23121094 24.02082031 -92.25539062 23.76429687 -91.25 23.5 C-90.32703125 23.2628125 -89.4040625 23.025625 -88.453125 22.78125 C-85.78443303 22.05566158 -85.78443303 22.05566158 -83 20 C-78.2391722 18.44544398 -73.45187794 17.45641869 -68.52734375 16.5625 C-65.92926293 16.03033962 -65.92926293 16.03033962 -63.203125 15.0625 C-58.7546376 13.58690418 -54.2210102 12.55900146 -49.65820312 11.5 C-46.28816039 10.68839987 -43.91558498 9.94372332 -41 8 C-39.02734375 7.40234375 -39.02734375 7.40234375 -36.9375 6.9375 C-34.74728742 6.44398841 -33.01486148 6.00743074 -31 5 C-28.73340843 4.72904124 -26.46718841 4.55512003 -24.19140625 4.37890625 C-21.71626355 4.1032176 -21.71626355 4.1032176 -19 2 C-16.94921875 1.65625 -16.94921875 1.65625 -14.6875 1.5 C-11.71596895 1.23950864 -9.554238 0.84860913 -6.6875 -0.125 C-3.78597617 -1.06968218 -2.82023341 -0.8538873 0 0 Z " fill="#F8F8F8" transform="translate(316,64)"/>
<path d="M0 0 C0.66 0 1.32 0 2 0 C0.77711593 3.6686522 -0.16409043 3.98551242 -3.4375 5.875 C-4.80068359 6.66197266 -4.80068359 6.66197266 -6.19140625 7.46484375 C-9.54580614 9.29833354 -12.9551117 10.98898304 -16.390625 12.6640625 C-19.2085091 14.10675167 -21.90731283 15.6892328 -24.625 17.3125 C-29.88318338 20.42174509 -35.24932645 23.18227832 -40.72509766 25.87817383 C-45.69854705 28.33201621 -50.60863756 30.88668369 -55.5 33.5 C-68.397389 40.371066 -81.49835187 46.75728972 -94.73779297 52.93945312 C-98.79101842 54.83964861 -102.8318574 56.76597097 -106.875 58.6875 C-111.83552328 61.04364966 -116.80030033 63.38018223 -121.8125 65.625 C-127.17318207 68.03354358 -132.40493247 70.68546101 -137.640625 73.3515625 C-138.74921875 73.89554688 -139.8578125 74.43953125 -141 75 C-141.60650391 75.30131836 -142.21300781 75.60263672 -142.83789062 75.91308594 C-146.38859594 77.5787789 -148.27962872 78.1972094 -152 77 C-146.95052254 74.59766092 -141.9006234 72.19621088 -136.8503418 69.79556274 C-135.02980079 68.9301208 -133.20932578 68.06454 -131.38891602 67.19882202 C-121.90312889 62.68829377 -112.41539941 58.18273374 -102.8984375 53.73828125 C-76.19550518 41.26416614 -49.7126196 28.42998838 -24 14 C-22.44442383 13.12988281 -22.44442383 13.12988281 -20.85742188 12.2421875 C-15.68386237 9.3457337 -10.51477044 6.44131385 -5.35546875 3.51953125 C-4.53715576 3.05651611 -3.71884277 2.59350098 -2.87573242 2.11645508 C-1.05471185 1.13669788 -1.05471185 1.13669788 0 0 Z " fill="#EBEBEB" transform="translate(660,904)"/>
<path d="M0 0 C5.52507256 0.43849782 10.28467569 1.21899416 15.46875 3.18359375 C17.6859497 3.89870908 19.81731691 4.40346793 22.09375 4.87890625 C28.48594326 6.25796276 34.62546336 8.38603003 40.828125 10.43359375 C45.9303338 12.09394941 50.94158203 13.52092328 56.22265625 14.49023438 C58 15 58 15 60 17 C62.31648799 18.03842565 64.64903024 19.0421975 67 20 C63.85478976 21.57260512 61.68715839 20.14066469 58.40234375 19.0859375 C57.40981346 18.77104118 57.40981346 18.77104118 56.39723206 18.44978333 C54.2418591 17.76467639 52.08978621 17.06973622 49.9375 16.375 C47.72725422 15.67049634 45.51615795 14.9687121 43.30496216 14.26719666 C41.85245888 13.80629312 40.40020709 13.34459629 38.94821167 12.88209534 C33.81782108 11.24985385 28.67325205 9.67895112 23.5 8.1875 C15.62898893 5.90840683 7.81241039 3.4709508 0 1 C0 0.67 0 0.34 0 0 Z " fill="#E6E6E6" transform="translate(854,111)"/>
<path d="M0 0 C3.85027206 1.57964187 6.24625535 4.03144395 9.140625 6.98046875 C9.62650085 7.47154617 10.11237671 7.9626236 10.61297607 8.46858215 C12.16350303 10.03685648 13.70719156 11.61163482 15.25 13.1875 C21.64174706 19.69581079 28.02966397 26.10163695 35 32 C40.12497279 36.54438147 45.23486494 41.0760271 50 46 C44.26494196 43.47496274 39.7584925 38.98775076 35 35 C34.24976563 34.38769531 33.49953125 33.77539062 32.7265625 33.14453125 C31.11141617 31.80956336 29.54893595 30.41125276 28 29 C28 28.34 28 27.68 28 27 C27.443125 26.7525 26.88625 26.505 26.3125 26.25 C21.47982245 23.63774187 18.39001145 20.23751432 15 16 C14.195625 15.360625 13.39125 14.72125 12.5625 14.0625 C9.59303163 11.67244009 7.43669344 8.92403212 5 6 C4.071875 5.2575 3.14375 4.515 2.1875 3.75 C1.465625 3.1725 0.74375 2.595 0 2 C0 1.34 0 0.68 0 0 Z " fill="#EAEAEA" transform="translate(152,758)"/>
<path d="M0 0 C-11.66319971 3.62273396 -23.34085231 7.16404426 -35.125 10.375 C-36.04168457 10.62523926 -36.95836914 10.87547852 -37.90283203 11.13330078 C-41.92125883 12.21718385 -45.91120594 13.21282843 -50 14 C-49.67 13.01 -49.34 12.02 -49 11 C-46.5625 10 -46.5625 10 -43 9 C-41.24901693 8.48248127 -39.49906625 7.96146051 -37.75 7.4375 C-36.47382813 7.06431641 -36.47382813 7.06431641 -35.171875 6.68359375 C-32.98393702 6.05782282 -32.98393702 6.05782282 -31 5 C-28.73340843 4.72904124 -26.46718841 4.55512003 -24.19140625 4.37890625 C-21.71626355 4.1032176 -21.71626355 4.1032176 -19 2 C-16.94921875 1.65625 -16.94921875 1.65625 -14.6875 1.5 C-11.71596895 1.23950864 -9.554238 0.84860913 -6.6875 -0.125 C-3.78597617 -1.06968218 -2.82023341 -0.8538873 0 0 Z " fill="#EAEAEA" transform="translate(316,64)"/>
<path d="M0 0 C0.33 0 0.66 0 1 0 C1.09320028 7.89375766 1.16401571 15.78728058 1.20724869 23.68145466 C1.22801169 27.34813866 1.25611844 31.01444276 1.30175781 34.6809082 C1.3456244 38.22766472 1.36922168 41.77405877 1.37950897 45.3210659 C1.39035921 47.31445154 1.42151824 49.30769393 1.45318604 51.30085754 C1.45504513 58.93388349 1.02179909 66.29538385 -3 73 C-5.13909912 74.29438782 -5.13909912 74.29438782 -7 75 C-5.96321119 71.5440373 -4.85296122 68.75955745 -2.95996094 65.6640625 C0.03897505 59.70234283 -0.39683735 53.41284098 -0.390625 46.875 C-0.37562074 45.51877897 -0.35888892 44.16257605 -0.34051514 42.80639648 C-0.29708016 39.26205542 -0.27689625 35.71796072 -0.26177979 32.17340088 C-0.24212176 28.54644343 -0.20016204 24.91974873 -0.16015625 21.29296875 C-0.08511358 14.1954131 -0.03466583 7.09787719 0 0 Z " fill="#BEBEBE" transform="translate(933,569)"/>
<path d="M0 0 C0.33 0 0.66 0 1 0 C1.62237333 16.00459508 2.17952909 31.98201607 2 48 C1.34 48 0.68 48 0 48 C-0.81981115 44.41302092 -1.12846964 41.09841238 -1.1328125 37.421875 C-1.13474609 36.35050293 -1.13667969 35.27913086 -1.13867188 34.17529297 C-1.13416016 33.04494629 -1.12964844 31.91459961 -1.125 30.75 C-1.12306641 29.59516113 -1.12113281 28.44032227 -1.11914062 27.25048828 C-1.0734844 18.13826656 -0.70844402 9.08326435 0 0 Z " fill="#E0E0E0" transform="translate(64,503)"/>
<path d="M0 0 C-5.34825454 3.00718871 -11.48385992 4.10512168 -17.3815918 5.6237793 C-19.56099181 6.18711016 -21.73648748 6.76406995 -23.91210938 7.34179688 C-25.29665783 7.70135811 -26.68141676 8.06011008 -28.06640625 8.41796875 C-29.32396729 8.74563232 -30.58152832 9.0732959 -31.87719727 9.41088867 C-35 10 -35 10 -38 9 C-32.54134348 5.4385481 -26.96926607 4.2839374 -20.6875 2.8125 C-19.03331055 2.40354492 -19.03331055 2.40354492 -17.34570312 1.98632812 C-11.41494346 0.57356806 -6.09572705 -0.33411415 0 0 Z " fill="#E4E4E4" transform="translate(441,29)"/>
<path d="M0 0 C5.63945724 0.44757597 10.43316596 1.33343975 15.74609375 3.24609375 C18.00769799 4.00257489 20.22723462 4.52333348 22.5625 5 C26.91737433 5.90470981 30.87282786 7.34913114 35 9 C31.07764677 10.49515445 28.19996411 9.48539764 24.25 8.375 C23.60474365 8.19549805 22.9594873 8.01599609 22.29467773 7.83105469 C14.81304194 5.72142567 7.40145722 3.37313477 0 1 C0 0.67 0 0.34 0 0 Z " fill="#E8E8E8" transform="translate(854,111)"/>
<path d="M0 0 C1.21236328 0.02707031 1.21236328 0.02707031 2.44921875 0.0546875 C3.37154297 0.08949219 3.37154297 0.08949219 4.3125 0.125 C4.3125 0.455 4.3125 0.785 4.3125 1.125 C2.80623047 1.48851562 2.80623047 1.48851562 1.26953125 1.859375 C-6.56208202 3.77229393 -14.2637071 5.8359292 -21.91796875 8.390625 C-24.64296491 9.11319098 -26.88425828 9.26849318 -29.6875 9.125 C-23.90861728 4.06847762 -17.30132361 2.81770986 -9.88671875 2.43359375 C-6.0328666 1.89282231 -4.15459666 -0.12042309 0 0 Z " fill="#E7E7E7" transform="translate(392.6875,40.875)"/>
<path d="M0 0 C0.66 0 1.32 0 2 0 C2 0.66 2 1.32 2 2 C2.53238281 2.22300781 3.06476563 2.44601562 3.61328125 2.67578125 C6.81387202 4.45155911 9.44193525 6.79462081 12.1875 9.1875 C17.34142902 13.61942679 22.57894976 17.89569064 28 22 C27.34 22.33 26.68 22.66 26 23 C20.60554753 18.91582798 15.35707639 14.67595311 10.1875 10.3125 C9.63682861 9.84932373 9.08615723 9.38614746 8.51879883 8.90893555 C5.55000051 6.3901884 2.65652239 3.84949012 0 1 C0 0.67 0 0.34 0 0 Z " fill="#E8E8E8" transform="translate(202,804)"/>
<path d="M0 0 C0.66 0.33 1.32 0.66 2 1 C-2.84981277 4.88911 -8.42622181 7.31903461 -14 10 C-14.72574219 10.35964844 -15.45148437 10.71929688 -16.19921875 11.08984375 C-19.62977968 12.7046631 -21.40776529 13.12257335 -25 12 C-20.88118994 9.9663653 -16.75403128 7.9502903 -12.625 5.9375 C-10.8615625 5.06641602 -10.8615625 5.06641602 -9.0625 4.17773438 C-7.38027344 3.36079102 -7.38027344 3.36079102 -5.6640625 2.52734375 C-4.62717285 2.01937256 -3.5902832 1.51140137 -2.52197266 0.98803711 C-1.68972168 0.66198486 -0.8574707 0.33593262 0 0 Z " fill="#E4E4E4" transform="translate(533,969)"/>
<path d="M0 0 C3 1 3 1 4.07495117 2.67407227 C4.39439697 3.38104248 4.71384277 4.0880127 5.04296875 4.81640625 C5.56987305 5.96206055 5.56987305 5.96206055 6.10742188 7.13085938 C6.46384766 7.93330078 6.82027344 8.73574219 7.1875 9.5625 C7.55552734 10.36880859 7.92355469 11.17511719 8.30273438 12.00585938 C9.21124489 13.99986298 10.10980336 15.99776958 11 18 C6.75043405 16.14516896 5.91750031 14.23447986 4 10 C3.28053204 8.76513135 2.55123107 7.53594233 1.8125 6.3125 C0 3 0 3 0 0 Z " fill="#F6F6F6" transform="translate(83,663)"/>
<path d="M0 0 C0.33 0.66 0.66 1.32 1 2 C0.566875 2.37125 0.13375 2.7425 -0.3125 3.125 C-2.17982756 5.02750756 -2.17982756 5.02750756 -3.4375 7.9375 C-4.97035791 10.94190151 -6.50898822 12.76667909 -9 15 C-9.33 14.34 -9.66 13.68 -10 13 C-8.71389867 11.0170112 -7.42150861 9.03866624 -6.125 7.0625 C-5.40570312 5.96035156 -4.68640625 4.85820313 -3.9453125 3.72265625 C-2 1 -2 1 0 0 Z " fill="#F2F2F2" transform="translate(896,700)"/>
<path d="M0 0 C-0.33 0.99 -0.66 1.98 -1 3 C-3.8359375 3.984375 -3.8359375 3.984375 -7.375 4.75 C-8.53773438 5.01296875 -9.70046875 5.2759375 -10.8984375 5.546875 C-14 6 -14 6 -17 5 C-11.93449649 1.40512654 -6.16443884 0 0 0 Z " fill="#F3F3F3" transform="translate(420,33)"/>
<path d="M0 0 C0.66 0 1.32 0 2 0 C0.74875245 5.68748885 -1.04102568 8.72847508 -5 13 C-5.33 12.34 -5.66 11.68 -6 11 C-4.78515625 8.3984375 -4.78515625 8.3984375 -3.0625 5.375 C-2.21365234 3.87066406 -2.21365234 3.87066406 -1.34765625 2.3359375 C-0.90292969 1.56507813 -0.45820312 0.79421875 0 0 Z " fill="#E7E7E7" transform="translate(925,644)"/>
<path d="M0 0 C3.90285767 1.58667578 6.33520982 4.13350481 9.25 7.125 C10.14203125 8.03507813 11.0340625 8.94515625 11.953125 9.8828125 C12.62859375 10.58148437 13.3040625 11.28015625 14 12 C13.01 12.495 13.01 12.495 12 13 C8.11036709 9.90597382 5.06550061 6.94135793 2 3 C1.34 2.67 0.68 2.34 0 2 C0 1.34 0 0.68 0 0 Z " fill="#D6D6D6" transform="translate(152,758)"/>
<path d="M0 0 C1.77111844 0.47811177 3.54188483 0.9575278 5.3125 1.4375 C6.29863281 1.70433594 7.28476562 1.97117187 8.30078125 2.24609375 C10.21517526 2.78079425 12.11433615 3.37144538 14 4 C14 4.66 14 5.32 14 6 C8.60204011 4.84941444 3.29012667 3.57578241 -2 2 C-1.34 1.34 -0.68 0.68 0 0 Z " fill="#DADADA" transform="translate(889,120)"/>
<path d="M0 0 C3.89006773 1.38780795 6.96558708 3.2152227 10.3125 5.625 C11.19550781 6.25664063 12.07851563 6.88828125 12.98828125 7.5390625 C13.65214844 8.02117188 14.31601562 8.50328125 15 9 C14.01 9.33 13.02 9.66 12 10 C10.09765625 8.85546875 10.09765625 8.85546875 8.0625 7.1875 C5.46564254 5.08099328 3.04495957 3.39645797 0 2 C0 1.34 0 0.68 0 0 Z " fill="#EDEDED" transform="translate(293,873)"/>
<path d="M0 0 C0.99 0 1.98 0 3 0 C4.65 3.3 6.3 6.6 8 10 C3.91748364 7.95874182 3.47606026 7.69699058 1.75 3.875 C1.41484375 3.15054688 1.0796875 2.42609375 0.734375 1.6796875 C0.49203125 1.12539063 0.2496875 0.57109375 0 0 Z " fill="#EBEBEB" transform="translate(92,681)"/>
<path d="M0 0 C0 0.66 0 1.32 0 2 C-3.82320557 3.42258812 -6.91281305 4.24042276 -11 4 C-7.04396675 0.96704118 -5.03239385 -0.13243142 0 0 Z " fill="#EEEEEE" transform="translate(374,46)"/>
<path d="M0 0 C2.12577907 0.0868276 4.25069581 0.1949951 6.375 0.3125 C7.55835938 0.37050781 8.74171875 0.42851562 9.9609375 0.48828125 C10.96382812 0.65714844 11.96671875 0.82601563 13 1 C13.66 1.99 14.32 2.98 15 4 C9.94468132 3.22225866 4.98283716 2.14051606 0 1 C0 0.67 0 0.34 0 0 Z " fill="#E1E1E1" transform="translate(528,22)"/>
<path d="M0 0 C0.99 0.33 1.98 0.66 3 1 C3.33 3.64 3.66 6.28 4 9 C3.34 9 2.68 9 2 9 C0.14223235 5.86501708 -0.20140476 3.62528568 0 0 Z " fill="#E2E2E2" transform="translate(71,623)"/>
<path d="M0 0 C-3.68734758 2.45823172 -6.69699971 3.01242616 -11 4 C-11 3.34 -11 2.68 -11 2 C-6.89657963 -0.38570952 -4.61380251 -1.49270081 0 0 Z " fill="#F1F1F1" transform="translate(217,92)"/>
<path d="M0 0 C0 0.99 0 1.98 0 3 C-2.375 4.75 -2.375 4.75 -5 6 C-5.66 5.67 -6.32 5.34 -7 5 C-4.87219421 2.65941363 -2.88437779 1.29299694 0 0 Z " fill="#F2F2F2" transform="translate(629,922)"/>
<path d="M0 0 C-3.53411321 2.12046792 -6.94393835 2.53199289 -11 3 C-6.7849044 -0.23157329 -5.27490657 -1.24931998 0 0 Z " fill="#F7F7F7" transform="translate(338,57)"/>
</svg>
